%TF.GenerationSoftware,Altium Limited,Altium Designer,23.6.0 (18)*%
G04 Layer_Color=0*
%FSLAX45Y45*%
%MOMM*%
%TF.SameCoordinates,CF38A103-D8AE-499C-B0C4-B378558345B8*%
%TF.FilePolarity,Positive*%
%TF.FileFunction,Plated,1,2,PTH,Drill*%
%TF.Part,Single*%
G01*
G75*
%TA.AperFunction,OtherDrill,Pad Free-26 (67.056mm,123.444mm)*%
%ADD43C,3.17500*%
%TA.AperFunction,OtherDrill,Pad Free-26 (66.929mm,84.455mm)*%
%ADD44C,3.17500*%
%TA.AperFunction,ComponentDrill*%
%ADD45C,1.19000*%
%ADD46C,1.19000*%
%TA.AperFunction,OtherDrill,Pad Free-26 (31.623mm,84.455mm)*%
%ADD47C,3.17500*%
%TA.AperFunction,OtherDrill,Pad Free-26 (31.75mm,123.444mm)*%
%ADD48C,3.17500*%
%TA.AperFunction,ViaDrill,NotFilled*%
%ADD49C,0.71120*%
D43*
X6705600Y12344400D02*
D03*
D44*
X6692900Y8445500D02*
D03*
D45*
X5778500Y8851900D02*
D03*
X5524500D02*
D03*
X3949700Y12001500D02*
D03*
X4203700D02*
D03*
X4457700D02*
D03*
D46*
X3111500Y11176000D02*
D03*
Y10922000D02*
D03*
X3175000Y9537700D02*
D03*
Y9791700D02*
D03*
D47*
X3162300Y8445500D02*
D03*
D48*
X3175000Y12344400D02*
D03*
D49*
X6362700Y11074400D02*
D03*
X5321300Y10566400D02*
D03*
X5080000Y11023600D02*
D03*
X5994400Y12001500D02*
D03*
X5715000D02*
D03*
X5283200D02*
D03*
X4965700D02*
D03*
X4648200Y10337800D02*
D03*
X6031900Y10013129D02*
D03*
X5985420Y9681120D02*
D03*
X5422900Y9550400D02*
D03*
X5600700Y9575800D02*
D03*
X3683000Y10642600D02*
D03*
X4910599Y10067885D02*
D03*
X4191000Y11226800D02*
D03*
X4140200Y10693400D02*
D03*
X6565900Y10960100D02*
D03*
X4737100Y9817100D02*
D03*
X4406900Y9956800D02*
D03*
%TF.MD5,2cba06de6b80696398f045d2c8708490*%
M02*
