%TF.GenerationSoftware,Altium Limited,Altium Designer,23.6.0 (18)*%
G04 Layer_Color=8421504*
%FSLAX45Y45*%
%MOMM*%
%TF.SameCoordinates,E9F55D22-D83D-4709-9336-3143B1C0F483*%
%TF.FilePolarity,Positive*%
%TF.FileFunction,Paste,Top*%
%TF.Part,Single*%
G01*
G75*
%TA.AperFunction,SMDPad,CuDef*%
%ADD10R,1.20000X1.40000*%
%ADD11R,1.35000X1.85000*%
%ADD12R,1.85000X1.35000*%
%ADD13R,0.60000X1.05000*%
%ADD14R,1.35000X0.60000*%
%ADD15R,0.60000X1.35000*%
D10*
X5596800Y11303000D02*
D03*
X5426800D02*
D03*
X5596800Y11023601D02*
D03*
X5426800D02*
D03*
D11*
X6273900Y11528083D02*
D03*
X5968900D02*
D03*
X5067400D02*
D03*
X4762400D02*
D03*
D12*
X6540500Y10198000D02*
D03*
Y10503000D02*
D03*
X4432300Y10172600D02*
D03*
Y10477600D02*
D03*
D13*
X5156200Y10108500D02*
D03*
X5061200Y10338500D02*
D03*
X5251200D02*
D03*
X5715000Y10109200D02*
D03*
X5620000Y10339200D02*
D03*
X5810000D02*
D03*
D14*
X5263500Y9448800D02*
D03*
X5023500Y9353800D02*
D03*
Y9543800D02*
D03*
X6025500Y9448800D02*
D03*
X5785500Y9353800D02*
D03*
Y9543800D02*
D03*
D15*
X4406900Y9721200D02*
D03*
X4501900Y9481200D02*
D03*
X4311900D02*
D03*
X6642100Y9810100D02*
D03*
X6737100Y9570100D02*
D03*
X6547100D02*
D03*
%TF.MD5,2c4964216f8958856ec0f3b3ecba49e2*%
M02*
