%TF.GenerationSoftware,Altium Limited,Altium Designer,23.6.0 (18)*%
G04 Layer_Physical_Order=1*
G04 Layer_Color=255*
%FSLAX45Y45*%
%MOMM*%
%TF.SameCoordinates,E9F55D22-D83D-4709-9336-3143B1C0F483*%
%TF.FilePolarity,Positive*%
%TF.FileFunction,Copper,L1,Top,Signal*%
%TF.Part,Single*%
G01*
G75*
%TA.AperFunction,SMDPad,CuDef*%
%ADD10R,1.20000X1.40000*%
%ADD11R,1.35000X1.85000*%
%ADD12R,1.85000X1.35000*%
%ADD13R,0.60000X1.05000*%
%ADD14R,1.35000X0.60000*%
%ADD15R,0.60000X1.35000*%
%TA.AperFunction,Conductor*%
%ADD16C,0.63500*%
%ADD17C,1.27000*%
%TA.AperFunction,ViaPad*%
%ADD18C,3.81000*%
%TA.AperFunction,ComponentPad*%
%ADD19R,1.70000X1.70000*%
%ADD20C,1.70000*%
%ADD21R,1.70000X1.70000*%
%TA.AperFunction,ViaPad*%
%ADD22C,1.27000*%
G36*
X7035800Y8115300D02*
X2743200D01*
Y12623800D01*
X7035800D01*
Y8115300D01*
D02*
G37*
%LPC*%
G36*
X6705600Y12574106D02*
X6660787Y12569692D01*
X6617695Y12556621D01*
X6577982Y12535394D01*
X6543173Y12506827D01*
X6514606Y12472018D01*
X6493379Y12432305D01*
X6480308Y12389213D01*
X6475894Y12344400D01*
X6480308Y12299587D01*
X6493379Y12256495D01*
X6514606Y12216782D01*
X6543173Y12181973D01*
X6577982Y12153406D01*
X6617695Y12132179D01*
X6660787Y12119108D01*
X6705600Y12114694D01*
X6750413Y12119108D01*
X6793505Y12132179D01*
X6833218Y12153406D01*
X6868027Y12181973D01*
X6896594Y12216782D01*
X6917821Y12256495D01*
X6930892Y12299587D01*
X6935306Y12344400D01*
X6930892Y12389213D01*
X6917821Y12432305D01*
X6896594Y12472018D01*
X6868027Y12506827D01*
X6833218Y12535394D01*
X6793505Y12556621D01*
X6750413Y12569692D01*
X6705600Y12574106D01*
D02*
G37*
G36*
X3175000D02*
X3130187Y12569692D01*
X3087095Y12556621D01*
X3047382Y12535394D01*
X3012573Y12506827D01*
X2984006Y12472018D01*
X2962779Y12432305D01*
X2949708Y12389213D01*
X2945294Y12344400D01*
X2949708Y12299587D01*
X2962779Y12256495D01*
X2984006Y12216782D01*
X3012573Y12181973D01*
X3047382Y12153406D01*
X3087095Y12132179D01*
X3130187Y12119108D01*
X3175000Y12114694D01*
X3219813Y12119108D01*
X3262905Y12132179D01*
X3302618Y12153406D01*
X3337427Y12181973D01*
X3365994Y12216782D01*
X3387221Y12256495D01*
X3400292Y12299587D01*
X3404706Y12344400D01*
X3400292Y12389213D01*
X3387221Y12432305D01*
X3365994Y12472018D01*
X3337427Y12506827D01*
X3302618Y12535394D01*
X3262905Y12556621D01*
X3219813Y12569692D01*
X3175000Y12574106D01*
D02*
G37*
G36*
X4203700Y12125662D02*
X4171564Y12121431D01*
X4141619Y12109028D01*
X4115904Y12089296D01*
X4096172Y12063581D01*
X4083769Y12033636D01*
X4083105Y12028594D01*
X4070295D01*
X4069631Y12033636D01*
X4057228Y12063581D01*
X4037496Y12089296D01*
X4011781Y12109028D01*
X3981836Y12121431D01*
X3949700Y12125662D01*
X3917564Y12121431D01*
X3887619Y12109028D01*
X3861904Y12089296D01*
X3842172Y12063581D01*
X3829769Y12033636D01*
X3825538Y12001500D01*
X3829769Y11969364D01*
X3842172Y11939419D01*
X3861904Y11913704D01*
X3887619Y11893972D01*
X3917564Y11881569D01*
X3949700Y11877338D01*
X3981836Y11881569D01*
X4011781Y11893972D01*
X4037496Y11913704D01*
X4057228Y11939419D01*
X4069631Y11969364D01*
X4070295Y11974406D01*
X4083105D01*
X4083769Y11969364D01*
X4096172Y11939419D01*
X4101223Y11932837D01*
Y11607802D01*
X4101223Y11607800D01*
X4104715Y11581277D01*
X4114952Y11556562D01*
X4131238Y11535338D01*
X4217693Y11448883D01*
X4217694Y11448882D01*
X4317123Y11349453D01*
Y10744202D01*
X4317123Y10744200D01*
X4320615Y10717677D01*
X4330852Y10692962D01*
X4347138Y10671738D01*
X4349147Y10670196D01*
Y10583200D01*
X4301700D01*
Y10372000D01*
X4540099D01*
X4548554Y10359300D01*
X4545723Y10337800D01*
X4549215Y10311277D01*
X4557655Y10290900D01*
X4552297Y10280324D01*
X4549860Y10278200D01*
X4301700D01*
Y10067000D01*
X4348597D01*
Y10040127D01*
X4334438Y10029262D01*
X4318152Y10008038D01*
X4307915Y9983323D01*
X4304423Y9956800D01*
X4307915Y9930277D01*
X4318152Y9905562D01*
X4334438Y9884338D01*
X4336447Y9882796D01*
Y9721200D01*
X4338800Y9703328D01*
Y9615600D01*
X4475000D01*
Y9703328D01*
X4477353Y9721200D01*
Y9882796D01*
X4479362Y9884338D01*
X4495648Y9905562D01*
X4505885Y9930277D01*
X4509377Y9956800D01*
X4505885Y9983323D01*
X4495648Y10008038D01*
X4489503Y10016047D01*
Y10067000D01*
X4562900D01*
Y10261206D01*
X4575600Y10265517D01*
X4575738Y10265338D01*
X4596962Y10249052D01*
X4621677Y10238815D01*
X4647145Y10235462D01*
X4808890Y10073717D01*
X4808122Y10067885D01*
X4811614Y10041362D01*
X4821851Y10016647D01*
X4838137Y9995423D01*
X4859360Y9979138D01*
X4884076Y9968900D01*
X4910599Y9965409D01*
X4937122Y9968900D01*
X4961837Y9979138D01*
X4983061Y9995423D01*
X4999346Y10016647D01*
X5009584Y10041362D01*
X5013076Y10067885D01*
X5009584Y10094408D01*
X4999346Y10119124D01*
X4983061Y10140348D01*
X4961837Y10156633D01*
X4937122Y10166870D01*
X4911654Y10170223D01*
X4749909Y10331968D01*
X4750677Y10337800D01*
X4747185Y10364323D01*
X4736948Y10389038D01*
X4720662Y10410262D01*
X4699438Y10426548D01*
X4674723Y10436785D01*
X4648200Y10440277D01*
X4621677Y10436785D01*
X4596962Y10426548D01*
X4575738Y10410262D01*
X4574926Y10409204D01*
X4562900Y10413287D01*
Y10583200D01*
X4490053D01*
Y10670196D01*
X4492062Y10671738D01*
X4563647Y10743323D01*
X4958723D01*
Y10338500D01*
X4962215Y10311977D01*
X4972453Y10287262D01*
X4988738Y10266038D01*
X4993100Y10262691D01*
Y10247900D01*
X5014434D01*
X5034677Y10239515D01*
X5061200Y10236023D01*
X5087723Y10239515D01*
X5107966Y10247900D01*
X5129300D01*
Y10262691D01*
X5133662Y10266038D01*
X5149948Y10287262D01*
X5160185Y10311977D01*
X5163677Y10338500D01*
Y10743323D01*
X5517523D01*
Y10339200D01*
X5521015Y10312677D01*
X5531253Y10287962D01*
X5547538Y10266738D01*
X5551900Y10263391D01*
Y10248600D01*
X5573234D01*
X5593477Y10240215D01*
X5620000Y10236723D01*
X5646523Y10240215D01*
X5666766Y10248600D01*
X5688100D01*
Y10263391D01*
X5692462Y10266738D01*
X5708748Y10287962D01*
X5718985Y10312677D01*
X5722477Y10339200D01*
Y10775347D01*
X6384318D01*
X6470047Y10689618D01*
Y10608600D01*
X6409900D01*
Y10397400D01*
X6671100D01*
Y10608600D01*
X6610953D01*
Y10718800D01*
X6608552Y10737034D01*
X6601514Y10754026D01*
X6590318Y10768618D01*
X6463318Y10895618D01*
X6448726Y10906814D01*
X6431734Y10913852D01*
X6413500Y10916253D01*
X5700104D01*
X5698562Y10918262D01*
X5682200Y10930817D01*
Y11010900D01*
X5596801D01*
Y11036300D01*
X5682200D01*
Y11092848D01*
X6264570D01*
X6270317Y11087100D01*
X6450695D01*
X6449312Y11097607D01*
X6440354Y11119234D01*
X6426104Y11137804D01*
X6407534Y11152054D01*
X6397855Y11156063D01*
X6389903Y11164015D01*
X6380768Y11175920D01*
X6343570Y11213118D01*
X6328979Y11224314D01*
X6311987Y11231352D01*
X6293752Y11233753D01*
X5682200D01*
Y11290300D01*
X5596800D01*
Y11303000D01*
X5584100D01*
Y11398400D01*
X5524900D01*
Y11411100D01*
X5328700D01*
Y11233753D01*
X5194300D01*
X5176066Y11231352D01*
X5159074Y11224314D01*
X5144483Y11213118D01*
X5054022Y11122657D01*
X5053477Y11122585D01*
X5028762Y11112348D01*
X5007538Y11096062D01*
X4991252Y11074838D01*
X4981015Y11050123D01*
X4977523Y11023600D01*
X4981015Y10997077D01*
X4991252Y10972362D01*
X4999988Y10960977D01*
X4993725Y10948277D01*
X4522077D01*
Y11391900D01*
X4518585Y11418423D01*
X4508348Y11443138D01*
X4505968Y11446240D01*
X4511585Y11457631D01*
X4656800D01*
Y11397483D01*
X4868000D01*
Y11658683D01*
X4656800D01*
Y11598536D01*
X4357888D01*
X4306177Y11650247D01*
Y11932837D01*
X4311228Y11939419D01*
X4323631Y11969364D01*
X4327862Y12001500D01*
X4323631Y12033636D01*
X4311228Y12063581D01*
X4291496Y12089296D01*
X4265781Y12109028D01*
X4235836Y12121431D01*
X4203700Y12125662D01*
D02*
G37*
G36*
X4445000Y12111900D02*
X4347300D01*
Y12014200D01*
X4445000D01*
Y12111900D01*
D02*
G37*
G36*
Y11988800D02*
X4347300D01*
Y11891100D01*
X4445000D01*
Y11988800D01*
D02*
G37*
G36*
X4568100Y12111900D02*
X4470400D01*
Y12001500D01*
Y11891100D01*
X4568100D01*
Y11899023D01*
X6282153D01*
X6379138Y11802038D01*
X6393510Y11791010D01*
X6404538Y11776638D01*
X6406547Y11774628D01*
Y11608066D01*
X6397018Y11598536D01*
X6366800D01*
Y11645983D01*
X6286600D01*
Y11528084D01*
X6273900D01*
Y11515384D01*
X6181000D01*
Y11411553D01*
X6074500D01*
Y11658683D01*
X5863300D01*
Y11598536D01*
X5173000D01*
Y11658683D01*
X4961800D01*
Y11397483D01*
X5173000D01*
Y11457631D01*
X5863300D01*
Y11397483D01*
X5916365D01*
Y11378298D01*
X5918766Y11360063D01*
X5925804Y11343071D01*
X5937000Y11328480D01*
X5974198Y11291282D01*
X5988789Y11280086D01*
X6005781Y11273048D01*
X6024015Y11270647D01*
X6397018D01*
X6495447Y11172217D01*
Y11034104D01*
X6493438Y11032562D01*
X6477152Y11011338D01*
X6466915Y10986623D01*
X6463423Y10960100D01*
X6466915Y10933577D01*
X6477152Y10908862D01*
X6493438Y10887638D01*
X6514662Y10871352D01*
X6539377Y10861115D01*
X6565900Y10857623D01*
X6592423Y10861115D01*
X6617138Y10871352D01*
X6638362Y10887638D01*
X6654648Y10908862D01*
X6664885Y10933577D01*
X6668377Y10960100D01*
X6664885Y10986623D01*
X6654648Y11011338D01*
X6638362Y11032562D01*
X6636353Y11034104D01*
Y11201400D01*
X6633952Y11219634D01*
X6626914Y11236626D01*
X6615718Y11251218D01*
X6476018Y11390918D01*
X6461426Y11402114D01*
X6444434Y11409152D01*
X6426200Y11411553D01*
X6366800D01*
Y11457631D01*
X6426200D01*
X6444434Y11460031D01*
X6461426Y11467070D01*
X6476018Y11478266D01*
X6514118Y11516366D01*
X6525314Y11530957D01*
X6525600Y11531649D01*
X6526818Y11532582D01*
X6538014Y11547174D01*
X6545052Y11564166D01*
X6547453Y11582400D01*
Y11617129D01*
X6559186Y11621990D01*
X6692023Y11489153D01*
Y10011773D01*
X6679323Y10006512D01*
X6641119Y10044717D01*
X6641118Y10044718D01*
X6610953Y10074882D01*
Y10092400D01*
X6671100D01*
Y10303600D01*
X6409900D01*
Y10092400D01*
X6470047D01*
Y10065353D01*
X6328382D01*
X6255353Y10138382D01*
Y10477500D01*
X6252952Y10495734D01*
X6245914Y10512726D01*
X6234718Y10527318D01*
X6145818Y10616218D01*
X6131226Y10627414D01*
X6114234Y10634452D01*
X6096000Y10636853D01*
X5853798D01*
X5835563Y10634452D01*
X5818571Y10627414D01*
X5803980Y10616218D01*
X5760183Y10572420D01*
X5748986Y10557829D01*
X5741948Y10540837D01*
X5739547Y10522603D01*
Y10339200D01*
X5741900Y10321328D01*
Y10248600D01*
X5878100D01*
Y10321328D01*
X5880453Y10339200D01*
Y10493420D01*
X5882980Y10495947D01*
X6066818D01*
X6114447Y10448317D01*
Y10109200D01*
X6116848Y10090966D01*
X6117553Y10089262D01*
X6106460Y10082857D01*
X6104362Y10085591D01*
X6083138Y10101877D01*
X6058423Y10112114D01*
X6031900Y10115606D01*
X6005377Y10112114D01*
X5980661Y10101877D01*
X5959438Y10085591D01*
X5943152Y10064368D01*
X5932915Y10039652D01*
X5929423Y10013129D01*
X5932915Y9986606D01*
X5939637Y9970377D01*
X5931151Y9957677D01*
X5817477D01*
Y10109200D01*
X5813985Y10135723D01*
X5803748Y10160438D01*
X5787462Y10181662D01*
X5783100Y10185009D01*
Y10199800D01*
X5761766D01*
X5741523Y10208185D01*
X5715000Y10211677D01*
X5688477Y10208185D01*
X5668234Y10199800D01*
X5646900D01*
Y10185009D01*
X5642538Y10181662D01*
X5626252Y10160438D01*
X5616015Y10135723D01*
X5612523Y10109200D01*
Y9897647D01*
X5528238Y9813362D01*
X5526318Y9810861D01*
X5513727Y9812518D01*
X5511648Y9817538D01*
X5495362Y9838762D01*
X5495361Y9838763D01*
X5258677Y10075447D01*
Y10108500D01*
X5255185Y10135023D01*
X5244948Y10159738D01*
X5228662Y10180962D01*
X5224300Y10184309D01*
Y10199100D01*
X5202966D01*
X5182723Y10207485D01*
X5156200Y10210977D01*
X5129677Y10207485D01*
X5109434Y10199100D01*
X5088100D01*
Y10184309D01*
X5083738Y10180962D01*
X5067452Y10159738D01*
X5057215Y10135023D01*
X5053723Y10108500D01*
Y10033002D01*
X5053723Y10033000D01*
X5057215Y10006477D01*
X5067452Y9981762D01*
X5083738Y9960538D01*
X5320423Y9723853D01*
Y9668964D01*
X5309762Y9664548D01*
X5288538Y9648262D01*
X5191038Y9550762D01*
X5174752Y9529538D01*
X5169517Y9516900D01*
X5157900D01*
Y9398877D01*
X5123348D01*
X5116400Y9405824D01*
Y9409200D01*
X5113024D01*
X5095962Y9426262D01*
X5074738Y9442548D01*
X5050023Y9452785D01*
X5023500Y9456277D01*
X4996977Y9452785D01*
X4972262Y9442548D01*
X4956922Y9430777D01*
X4726747D01*
X4607862Y9549662D01*
X4586638Y9565948D01*
X4561923Y9576185D01*
X4535400Y9579677D01*
X4514600Y9576939D01*
Y9481200D01*
X4489200D01*
Y9574100D01*
X4446500D01*
Y9528070D01*
X4436415Y9503723D01*
X4432923Y9477200D01*
X4436415Y9450677D01*
X4446500Y9426330D01*
Y9388300D01*
X4479376D01*
X4611837Y9255839D01*
X4611838Y9255838D01*
X4633061Y9239553D01*
X4657777Y9229315D01*
X4684300Y9225823D01*
X5006553D01*
X5008438Y9223938D01*
X5029662Y9207652D01*
X5054377Y9197415D01*
X5080900Y9193923D01*
X5728098D01*
X5728100Y9193923D01*
X5754623Y9197415D01*
X5779338Y9207652D01*
X5783574Y9210903D01*
X5804362Y9194952D01*
X5829077Y9184715D01*
X5855600Y9181223D01*
X5855602Y9181223D01*
X6093884D01*
X6093886Y9181223D01*
X6120409Y9184715D01*
X6142640Y9193923D01*
X6515098D01*
X6515100Y9193923D01*
X6541623Y9197415D01*
X6566338Y9207652D01*
X6587562Y9223938D01*
X6809562Y9445938D01*
X6825847Y9467161D01*
X6835420Y9490273D01*
X6866962Y9521815D01*
X6883248Y9543038D01*
X6893485Y9567754D01*
X6896977Y9594277D01*
Y11531598D01*
X6896977Y11531600D01*
X6893485Y11558123D01*
X6883248Y11582838D01*
X6866962Y11604062D01*
X6549462Y11921562D01*
X6535090Y11932590D01*
X6524062Y11946962D01*
X6397062Y12073962D01*
X6375838Y12090248D01*
X6351123Y12100485D01*
X6324600Y12103977D01*
X6324598Y12103977D01*
X4568100D01*
Y12111900D01*
D02*
G37*
G36*
X6261200Y11645983D02*
X6181000D01*
Y11540784D01*
X6261200D01*
Y11645983D01*
D02*
G37*
G36*
X5682200Y11398400D02*
X5609500D01*
Y11315700D01*
X5682200D01*
Y11398400D01*
D02*
G37*
G36*
X6450695Y11061700D02*
X6375400D01*
Y10986405D01*
X6385907Y10987788D01*
X6407534Y10996746D01*
X6426104Y11010996D01*
X6440354Y11029566D01*
X6449312Y11051193D01*
X6450695Y11061700D01*
D02*
G37*
G36*
X6350000D02*
X6274705D01*
X6276088Y11051193D01*
X6285046Y11029566D01*
X6299296Y11010996D01*
X6317866Y10996746D01*
X6339493Y10987788D01*
X6350000Y10986405D01*
Y11061700D01*
D02*
G37*
G36*
X4191000Y11329277D02*
X4164477Y11325785D01*
X4139762Y11315548D01*
X4118538Y11299262D01*
X4102252Y11278038D01*
X4092015Y11253323D01*
X4088523Y11226800D01*
X4088906Y11223893D01*
X4079186Y11211226D01*
X4072148Y11194234D01*
X4069747Y11176000D01*
Y10767404D01*
X4067738Y10765862D01*
X4051452Y10744638D01*
X4041215Y10719923D01*
X4037723Y10693400D01*
X4041215Y10666877D01*
X4051452Y10642162D01*
X4067738Y10620938D01*
X4088962Y10604652D01*
X4113677Y10594415D01*
X4140200Y10590923D01*
X4166723Y10594415D01*
X4191438Y10604652D01*
X4212662Y10620938D01*
X4228948Y10642162D01*
X4239185Y10666877D01*
X4242677Y10693400D01*
X4239185Y10719923D01*
X4228948Y10744638D01*
X4212662Y10765862D01*
X4210653Y10767404D01*
Y11126910D01*
X4217523Y11127815D01*
X4242238Y11138052D01*
X4263462Y11154338D01*
X4279748Y11175562D01*
X4289985Y11200277D01*
X4293477Y11226800D01*
X4289985Y11253323D01*
X4279748Y11278038D01*
X4263462Y11299262D01*
X4242238Y11315548D01*
X4217523Y11325785D01*
X4191000Y11329277D01*
D02*
G37*
G36*
X3111500Y11300162D02*
X3079364Y11295931D01*
X3049419Y11283528D01*
X3023704Y11263796D01*
X3003972Y11238081D01*
X2991569Y11208136D01*
X2987338Y11176000D01*
X2991569Y11143864D01*
X3003972Y11113919D01*
X3023704Y11088204D01*
X3049419Y11068472D01*
X3075185Y11057800D01*
X3072658Y11045100D01*
X2988400D01*
Y10798900D01*
X3234600D01*
Y11045100D01*
X3150342D01*
X3147815Y11057800D01*
X3173581Y11068472D01*
X3199296Y11088204D01*
X3212604Y11105547D01*
X3514118D01*
X3612547Y11007118D01*
Y10716604D01*
X3610538Y10715062D01*
X3594252Y10693838D01*
X3584015Y10669123D01*
X3580523Y10642600D01*
X3584015Y10616077D01*
X3594252Y10591362D01*
X3610538Y10570138D01*
X3631762Y10553852D01*
X3656477Y10543615D01*
X3683000Y10540123D01*
X3709523Y10543615D01*
X3734238Y10553852D01*
X3755462Y10570138D01*
X3771748Y10591362D01*
X3781985Y10616077D01*
X3785477Y10642600D01*
X3781985Y10669123D01*
X3771748Y10693838D01*
X3755462Y10715062D01*
X3753453Y10716604D01*
Y11036300D01*
X3751052Y11054535D01*
X3744014Y11071527D01*
X3732818Y11086118D01*
X3593118Y11225818D01*
X3578527Y11237014D01*
X3561535Y11244052D01*
X3543300Y11246453D01*
X3212604D01*
X3199296Y11263796D01*
X3173581Y11283528D01*
X3143636Y11295931D01*
X3111500Y11300162D01*
D02*
G37*
G36*
X5321300Y10668877D02*
X5294777Y10665385D01*
X5270062Y10655148D01*
X5248838Y10638862D01*
X5232552Y10617638D01*
X5222315Y10592923D01*
X5218823Y10566400D01*
X5220323Y10555008D01*
X5201383Y10536068D01*
X5190186Y10521477D01*
X5183148Y10504485D01*
X5180747Y10486250D01*
Y10338500D01*
X5183100Y10320628D01*
Y10247900D01*
X5319300D01*
Y10320628D01*
X5321653Y10338500D01*
Y10457068D01*
X5329601Y10465016D01*
X5347823Y10467415D01*
X5372538Y10477652D01*
X5393762Y10493938D01*
X5410048Y10515162D01*
X5420285Y10539877D01*
X5423777Y10566400D01*
X5420285Y10592923D01*
X5410048Y10617638D01*
X5393762Y10638862D01*
X5372538Y10655148D01*
X5347823Y10665385D01*
X5321300Y10668877D01*
D02*
G37*
G36*
X4737100Y9919577D02*
X4710577Y9916085D01*
X4685862Y9905848D01*
X4664638Y9889562D01*
X4648352Y9868338D01*
X4638115Y9843623D01*
X4634623Y9817100D01*
X4638115Y9790577D01*
X4648352Y9765862D01*
X4664638Y9744638D01*
X4666647Y9743096D01*
Y9664700D01*
X4669048Y9646466D01*
X4676086Y9629474D01*
X4687282Y9614882D01*
X4808182Y9493983D01*
X4822773Y9482786D01*
X4839766Y9475748D01*
X4858000Y9473347D01*
X5023500D01*
X5041372Y9475700D01*
X5129100D01*
Y9611900D01*
X5041372D01*
X5023500Y9614253D01*
X4887182D01*
X4807553Y9693882D01*
Y9743096D01*
X4809562Y9744638D01*
X4825848Y9765862D01*
X4836085Y9790577D01*
X4839577Y9817100D01*
X4836085Y9843623D01*
X4825848Y9868338D01*
X4809562Y9889562D01*
X4788338Y9905848D01*
X4763623Y9916085D01*
X4737100Y9919577D01*
D02*
G37*
G36*
X3298100Y9914800D02*
X3051900D01*
Y9668600D01*
X3136158D01*
X3138685Y9655900D01*
X3112919Y9645228D01*
X3087204Y9625496D01*
X3067472Y9599781D01*
X3055069Y9569836D01*
X3050838Y9537700D01*
X3055069Y9505564D01*
X3067472Y9475619D01*
X3087204Y9449904D01*
X3112919Y9430172D01*
X3142864Y9417769D01*
X3175000Y9413538D01*
X3207136Y9417769D01*
X3237081Y9430172D01*
X3262796Y9449904D01*
X3276104Y9467247D01*
X3514118D01*
X3671282Y9310082D01*
X3685874Y9298886D01*
X3702866Y9291848D01*
X3721100Y9289447D01*
X4267200D01*
X4285434Y9291848D01*
X4302426Y9298886D01*
X4317018Y9310082D01*
X4361717Y9354782D01*
X4372914Y9369373D01*
X4375493Y9375600D01*
X4380000D01*
Y9386728D01*
X4382353Y9404600D01*
Y9481200D01*
X4380000Y9499072D01*
Y9586800D01*
X4243800D01*
Y9499072D01*
X4241447Y9481200D01*
Y9433782D01*
X4238018Y9430353D01*
X3750283D01*
X3593118Y9587518D01*
X3578526Y9598714D01*
X3561534Y9605752D01*
X3543300Y9608153D01*
X3276104D01*
X3262796Y9625496D01*
X3237081Y9645228D01*
X3211315Y9655900D01*
X3213842Y9668600D01*
X3298100D01*
Y9914800D01*
D02*
G37*
G36*
X5524500Y8976062D02*
X5492364Y8971831D01*
X5462419Y8959428D01*
X5436704Y8939696D01*
X5416972Y8913981D01*
X5404569Y8884036D01*
X5400338Y8851900D01*
X5404569Y8819764D01*
X5416972Y8789819D01*
X5436704Y8764104D01*
X5462419Y8744372D01*
X5492364Y8731969D01*
X5524500Y8727738D01*
X5556636Y8731969D01*
X5586581Y8744372D01*
X5612296Y8764104D01*
X5632028Y8789819D01*
X5642700Y8815585D01*
X5655400Y8813058D01*
Y8728800D01*
X5901600D01*
Y8975000D01*
X5655400D01*
Y8890742D01*
X5642700Y8888215D01*
X5632028Y8913981D01*
X5612296Y8939696D01*
X5586581Y8959428D01*
X5556636Y8971831D01*
X5524500Y8976062D01*
D02*
G37*
G36*
X6692900Y8675206D02*
X6648087Y8670792D01*
X6604995Y8657721D01*
X6565282Y8636494D01*
X6530473Y8607927D01*
X6501906Y8573118D01*
X6480679Y8533405D01*
X6467608Y8490313D01*
X6463194Y8445500D01*
X6467608Y8400687D01*
X6480679Y8357595D01*
X6501906Y8317882D01*
X6530473Y8283073D01*
X6565282Y8254506D01*
X6604995Y8233279D01*
X6648087Y8220208D01*
X6692900Y8215794D01*
X6737713Y8220208D01*
X6780805Y8233279D01*
X6820518Y8254506D01*
X6855327Y8283073D01*
X6883894Y8317882D01*
X6905121Y8357595D01*
X6918192Y8400687D01*
X6922606Y8445500D01*
X6918192Y8490313D01*
X6905121Y8533405D01*
X6883894Y8573118D01*
X6855327Y8607927D01*
X6820518Y8636494D01*
X6780805Y8657721D01*
X6737713Y8670792D01*
X6692900Y8675206D01*
D02*
G37*
G36*
X3162300D02*
X3117487Y8670792D01*
X3074395Y8657721D01*
X3034682Y8636494D01*
X2999873Y8607927D01*
X2971306Y8573118D01*
X2950079Y8533405D01*
X2937008Y8490313D01*
X2932594Y8445500D01*
X2937008Y8400687D01*
X2950079Y8357595D01*
X2971306Y8317882D01*
X2999873Y8283073D01*
X3034682Y8254506D01*
X3074395Y8233279D01*
X3117487Y8220208D01*
X3162300Y8215794D01*
X3207113Y8220208D01*
X3250205Y8233279D01*
X3289918Y8254506D01*
X3324727Y8283073D01*
X3353294Y8317882D01*
X3374521Y8357595D01*
X3387592Y8400687D01*
X3392006Y8445500D01*
X3387592Y8490313D01*
X3374521Y8533405D01*
X3353294Y8573118D01*
X3324727Y8607927D01*
X3289918Y8636494D01*
X3250205Y8657721D01*
X3207113Y8670792D01*
X3162300Y8675206D01*
D02*
G37*
%LPD*%
G36*
X5328700Y10948277D02*
X5166275D01*
X5160012Y10960977D01*
X5168748Y10972362D01*
X5178985Y10997077D01*
X5182477Y11023600D01*
X5179191Y11048556D01*
X5223483Y11092848D01*
X5328700D01*
Y10948277D01*
D02*
G37*
G36*
X6571647Y9914917D02*
Y9810100D01*
X6574000Y9792228D01*
Y9704500D01*
X6692023D01*
Y9663000D01*
X6681700D01*
Y9655654D01*
X6664638Y9642562D01*
X6648352Y9621338D01*
X6638115Y9596623D01*
X6634623Y9570100D01*
Y9562061D01*
X6627037Y9555933D01*
X6615200Y9561104D01*
Y9675700D01*
X6479000D01*
Y9567635D01*
X6436968Y9525603D01*
X6376003D01*
Y9814998D01*
X6373602Y9833233D01*
X6366564Y9850225D01*
X6355368Y9864816D01*
X6308436Y9911747D01*
X6313697Y9924447D01*
X6562118D01*
X6571647Y9914917D01*
D02*
G37*
G36*
X5912958Y9608658D02*
X5934181Y9592372D01*
X5958897Y9582135D01*
X5969952Y9580679D01*
X5973510Y9567401D01*
X5957038Y9554762D01*
X5953038Y9550762D01*
X5936752Y9529538D01*
X5931517Y9516900D01*
X5919900D01*
Y9386177D01*
X5898047D01*
X5878400Y9405824D01*
Y9409200D01*
X5875024D01*
X5857962Y9426262D01*
X5836738Y9442548D01*
X5812023Y9452785D01*
X5785500Y9456277D01*
X5758977Y9452785D01*
X5734262Y9442548D01*
X5713038Y9426262D01*
X5695976Y9409200D01*
X5692600D01*
Y9405824D01*
X5685652Y9398877D01*
X5369100D01*
Y9438976D01*
X5385885Y9455761D01*
X5396377Y9451415D01*
X5422900Y9447923D01*
X5449423Y9451415D01*
X5474138Y9461652D01*
X5495362Y9477938D01*
X5511648Y9499162D01*
X5513727Y9504182D01*
X5526318Y9505839D01*
X5528238Y9503338D01*
X5549462Y9487052D01*
X5574177Y9476815D01*
X5600700Y9473323D01*
X5627223Y9476815D01*
X5651938Y9487052D01*
X5667200Y9498763D01*
X5679900Y9492500D01*
Y9475700D01*
X5767628D01*
X5785500Y9473347D01*
X5803372Y9475700D01*
X5891100D01*
Y9611900D01*
X5903326Y9613045D01*
X5909591D01*
X5912958Y9608658D01*
D02*
G37*
D10*
X5596800Y11303000D02*
D03*
X5426800D02*
D03*
X5596800Y11023601D02*
D03*
X5426800D02*
D03*
D11*
X6273900Y11528083D02*
D03*
X5968900D02*
D03*
X5067400D02*
D03*
X4762400D02*
D03*
D12*
X6540500Y10198000D02*
D03*
Y10503000D02*
D03*
X4432300Y10172600D02*
D03*
Y10477600D02*
D03*
D13*
X5156200Y10108500D02*
D03*
X5061200Y10338500D02*
D03*
X5251200D02*
D03*
X5715000Y10109200D02*
D03*
X5620000Y10339200D02*
D03*
X5810000D02*
D03*
D14*
X5263500Y9448800D02*
D03*
X5023500Y9353800D02*
D03*
Y9543800D02*
D03*
X6025500Y9448800D02*
D03*
X5785500Y9353800D02*
D03*
Y9543800D02*
D03*
D15*
X4406900Y9721200D02*
D03*
X4501900Y9481200D02*
D03*
X4311900D02*
D03*
X6642100Y9810100D02*
D03*
X6737100Y9570100D02*
D03*
X6547100D02*
D03*
D16*
X5986818Y11378298D02*
Y11510166D01*
X5968900Y11528083D02*
X5986818Y11510166D01*
Y11378298D02*
X6024015Y11341100D01*
X6426200D01*
X5943600Y11528083D02*
X5968900D01*
X5067400D02*
X5943600D01*
X6330950Y11123333D02*
X6362700Y11091583D01*
X6330950Y11123333D02*
Y11126103D01*
X6293752Y11163300D02*
X6330950Y11126103D01*
X5596800Y11163300D02*
X6293752D01*
X5596800D02*
Y11303000D01*
Y11023601D02*
Y11163300D01*
X6362700Y11074400D02*
Y11091583D01*
X6426200Y11341100D02*
X6565900Y11201400D01*
Y10960100D02*
Y11201400D01*
X5426800Y11163300D02*
Y11303000D01*
Y11023601D02*
Y11163300D01*
X5251200Y10338500D02*
Y10486250D01*
X5321300Y10556350D01*
Y10566400D01*
X5080000Y11049000D02*
X5194300Y11163300D01*
X5080000Y11023600D02*
Y11049000D01*
X5194300Y11163300D02*
X5426800D01*
X6477000Y11582400D02*
Y11849100D01*
X6426200Y11528083D02*
X6464300Y11566183D01*
X6273900Y11528083D02*
X6426200D01*
X4296895D02*
X4762400D01*
X4648200Y10334042D02*
Y10337800D01*
Y10334042D02*
X4910599Y10071643D01*
Y10067885D02*
Y10071643D01*
X5785500Y9646300D02*
X5822698Y9683498D01*
X6031900Y10013129D02*
X6044050Y10000979D01*
X5822698Y9683498D02*
X5983042D01*
X5985420Y9681120D01*
X6044050Y10000979D02*
X6119569D01*
X6305550Y9814998D01*
X6184900Y10109200D02*
Y10477500D01*
X6299200Y9994900D02*
X6591300D01*
X6184900Y10109200D02*
X6299200Y9994900D01*
X4311900Y9404600D02*
Y9481200D01*
X3543300Y9537700D02*
X3721100Y9359900D01*
X4267200D02*
X4311900Y9404600D01*
X3721100Y9359900D02*
X4267200D01*
X6305550Y9492348D02*
X6342748Y9455150D01*
X6466150D01*
X6305550Y9492348D02*
Y9814998D01*
X5785500Y9543800D02*
Y9646300D01*
X6466150Y9455150D02*
X6545350Y9534350D01*
X5263500Y9448800D02*
X5297500D01*
X3111500Y11176000D02*
X3543300D01*
X3683000Y10642600D02*
Y11036300D01*
X3543300Y11176000D02*
X3683000Y11036300D01*
X4140200Y10693400D02*
Y11176000D01*
X4191000Y11226800D01*
X5061200Y10839700D02*
X5067300Y10845800D01*
X4419600Y10490300D02*
Y10744200D01*
X4394200Y11417300D02*
X4419600Y11391900D01*
X4737100Y9664700D02*
X4858000Y9543800D01*
X4737100Y9664700D02*
Y9817100D01*
X4858000Y9543800D02*
X5023500D01*
X3175000Y9537700D02*
X3543300D01*
X4419050Y10159350D02*
X4432300Y10172600D01*
X4419050Y9968950D02*
Y10159350D01*
X4406900Y9956800D02*
X4419050Y9968950D01*
X4406900Y9721200D02*
Y9956800D01*
X6591300Y9994900D02*
X6642100Y9944100D01*
X6540500Y10045700D02*
X6591300Y9994900D01*
X5853798Y10566400D02*
X6096000D01*
X5810000Y10339200D02*
Y10522603D01*
X5853798Y10566400D01*
X6096000D02*
X6184900Y10477500D01*
X6540500Y10045700D02*
Y10198000D01*
X6642100Y9810100D02*
Y9944100D01*
X5626100Y10845800D02*
X6413500D01*
X5620000Y10839700D02*
X5626100Y10845800D01*
X4419600Y10490300D02*
X4432300Y10477600D01*
X6540500Y10503000D02*
Y10718800D01*
X6413500Y10845800D02*
X6540500Y10718800D01*
X3149600Y9817100D02*
X3175000Y9791700D01*
D17*
X6737100Y9536877D02*
X6794500Y9594277D01*
X6737100Y9536877D02*
Y9570100D01*
Y9518400D02*
Y9536877D01*
X5994400Y12001500D02*
X6324600D01*
X5715000D02*
X5994400D01*
X5283200D02*
X5715000D01*
X4965700D02*
X5283200D01*
X4457700D02*
X4965700D01*
X6477000Y11849100D02*
X6794500Y11531600D01*
X4203700Y11607800D02*
X4290156Y11521344D01*
X4394200Y11417300D01*
X5715000Y9855200D02*
X5956343D01*
X6051997Y9848029D02*
X6159500Y9740526D01*
X5963513Y9848029D02*
X6051997D01*
X5956343Y9855200D02*
X5963513Y9848029D01*
X6794500Y9594277D02*
Y11531600D01*
X6106586Y9296400D02*
X6515100D01*
X6737100Y9518400D01*
X6093886Y9283700D02*
X6106586Y9296400D01*
X5855600Y9283700D02*
X6093886D01*
X5785500Y9353800D02*
X5855600Y9283700D01*
X5023500Y9353800D02*
X5080900Y9296400D01*
X5728100D02*
X5785500Y9353800D01*
X5080900Y9296400D02*
X5728100D01*
X5156200Y10033000D02*
X5422900Y9766300D01*
Y9550400D02*
Y9766300D01*
X5600700Y9740900D02*
X5715000Y9855200D01*
X5600700Y9575800D02*
Y9740900D01*
X6159500Y9556695D02*
Y9740526D01*
X6085105Y9482300D02*
X6159500Y9556695D01*
X6029500Y9482300D02*
X6085105D01*
X4684300Y9328300D02*
X5019500D01*
X6025500Y9478300D02*
X6029500Y9482300D01*
X6025500Y9448800D02*
Y9478300D01*
X5715000Y9855200D02*
Y10109200D01*
X5156200Y10033000D02*
Y10108500D01*
X5263500Y9478300D02*
X5361000Y9575800D01*
X4535400Y9477200D02*
X4684300Y9328300D01*
X6324600Y12001500D02*
X6451600Y11874500D01*
X5061200Y10338500D02*
Y10839700D01*
X4419600Y10744200D02*
Y11391900D01*
X5067300Y10845800D02*
X5626100D01*
X5620000Y10339200D02*
Y10839700D01*
X4521200Y10845800D02*
X5067300D01*
X4419600Y10744200D02*
X4521200Y10845800D01*
X4203700Y11607800D02*
Y12001500D01*
D18*
X6705600Y12344400D02*
D03*
X6692900Y8445500D02*
D03*
X3162300D02*
D03*
X3175000Y12344400D02*
D03*
D19*
X5778500Y8851900D02*
D03*
X4457700Y12001500D02*
D03*
D20*
X5524500Y8851900D02*
D03*
X3111500Y11176000D02*
D03*
X3949700Y12001500D02*
D03*
X4203700D02*
D03*
X3175000Y9537700D02*
D03*
D21*
X3111500Y10922000D02*
D03*
X3175000Y9791700D02*
D03*
D22*
X6362700Y11074400D02*
D03*
X5321300Y10566400D02*
D03*
X5080000Y11023600D02*
D03*
X5994400Y12001500D02*
D03*
X5715000D02*
D03*
X5283200D02*
D03*
X4965700D02*
D03*
X4648200Y10337800D02*
D03*
X6031900Y10013129D02*
D03*
X5985420Y9681120D02*
D03*
X5422900Y9550400D02*
D03*
X5600700Y9575800D02*
D03*
X3683000Y10642600D02*
D03*
X4910599Y10067885D02*
D03*
X4191000Y11226800D02*
D03*
X4140200Y10693400D02*
D03*
X6565900Y10960100D02*
D03*
X4737100Y9817100D02*
D03*
X4406900Y9956800D02*
D03*
%TF.MD5,2015111a0f81a53422a663434475bc82*%
M02*
